# xmcd CD database file
#
# Track frame offsets:
#	150
#	14549
#	32098
#	42279
#	59378
#	75877
#	94026
#	116375
#	145099
#	160218
#
# Disc length: 2317 seconds
#
# Revision: 0
# Processed by: cddbd v1.5.1PL2 Copyright (c) Steve Scherf et al.
# Submitted via: CDex 1.51
#
DISCID=72090b0a
DTITLE=The Juniper Hill Blues Band - One Scythe Fits All
DYEAR=2003
DGENRE=Blues
TTITLE0=01-Built for Comfort
TTITLE1=02-Do you ever wake up in the morning
TTITLE2=03-If you be may baby
TTITLE3=04-Rock me baby
TTITLE4=05-Good evenin' Mam
TTITLE5=06-Guess who
TTITLE6=07-The thrill is Gone
TTITLE7=08-Stormy Monday
TTITLE8=09-From 4 to late
TTITLE9=10-Treat her right
EXTD=YEAR: 2003
EXTT0=
EXTT1=
EXTT2=
EXTT3=
EXTT4=
EXTT5=
EXTT6=
EXTT7=
EXTT8=
EXTT9=
PLAYORDER=
